<svg width="330" height="167" viewBox="0 0 330 167" fill="none" xmlns="http://www.w3.org/2000/svg">
<rect x="1.26271" y="1.26015" width="327.976" height="164.682" rx="11.2027" fill="white" stroke="#EAFBEA" stroke-width="1.17923"/>
<text fill="#4B4B4C" xml:space="preserve" style="white-space: pre" font-family="Poppins" font-size="18.8678" letter-spacing="0.117923px"><tspan x="20" y="36.5683">Total Cost</tspan></text>
<text fill="#4B4B4C" xml:space="preserve" style="white-space: pre" font-family="Poppins" font-size="34.3602" font-weight="600" letter-spacing="0.143167px"><tspan x="20" y="104.167">$110</tspan></text>
<rect x="103.32" y="79.8209" width="66.5302" height="24.6408" rx="12.0273" fill="#FC100D" fill-opacity="0.15"/>
<text fill="#FC100D" xml:space="preserve" style="white-space: pre" font-family="Poppins" font-size="10.9339" letter-spacing="0.108905px"><tspan x="114.213" y="95.9682">-1.5%</tspan></text>
<path fill-rule="evenodd" clip-rule="evenodd" d="M152.227 97.191C152.069 97.1929 151.911 97.1289 151.797 96.9991L147.876 92.5106C147.672 92.2772 147.696 91.9228 147.929 91.7189C148.162 91.515 148.517 91.5389 148.721 91.7723L151.665 95.1415V87.6529C151.665 87.343 151.916 87.0918 152.226 87.0918C152.535 87.0918 152.787 87.343 152.787 87.6529V95.1319L155.731 91.7717C155.935 91.5386 156.29 91.5152 156.523 91.7194C156.756 91.9237 156.779 92.2781 156.575 92.5112L152.69 96.9451C152.589 97.0932 152.419 97.1905 152.227 97.191Z" fill="#FC100D"/>
<text fill="#4B4B4C" xml:space="preserve" style="white-space: pre" font-family="Poppins" font-size="16.5093" font-weight="300" letter-spacing="0.117923px"><tspan x="19.9999" y="139.861">Compared to previous year</tspan></text>
</svg>
