<svg width="330" height="167" viewBox="0 0 330 167" fill="none" xmlns="http://www.w3.org/2000/svg">
<rect x="1.09133" y="1.08144" width="327.976" height="165.039" rx="11.2027" fill="white" stroke="#EAFBEA" stroke-width="1.17923"/>
<text fill="#4B4B4C" xml:space="preserve" style="white-space: pre" font-family="Poppins" font-size="18.8678" letter-spacing="0.117923px"><tspan x="27" y="36.5683">Number of procediments</tspan></text>
<text fill="#4B4B4C" xml:space="preserve" style="white-space: pre" font-family="Poppins" font-size="34.3602" font-weight="600" letter-spacing="0.143167px"><tspan x="27" y="104.167">$110</tspan></text>
<rect x="110.32" y="79.8209" width="66.5302" height="24.6408" rx="12.0273" fill="#8518F1" fill-opacity="0.22"/>
<text fill="#8518F1" xml:space="preserve" style="white-space: pre" font-family="Poppins" font-size="10.9339" letter-spacing="0.108905px"><tspan x="121.213" y="95.9682">-1.5%</tspan></text>
<path fill-rule="evenodd" clip-rule="evenodd" d="M159.227 97.191C159.069 97.1929 158.911 97.1289 158.797 96.9991L154.876 92.5106C154.672 92.2772 154.696 91.9228 154.929 91.7189C155.162 91.515 155.517 91.5389 155.721 91.7723L158.665 95.1415V87.6529C158.665 87.343 158.916 87.0918 159.226 87.0918C159.535 87.0918 159.787 87.343 159.787 87.6529V95.1319L162.731 91.7717C162.935 91.5386 163.29 91.5152 163.523 91.7194C163.756 91.9237 163.779 92.2781 163.575 92.5112L159.69 96.9452C159.589 97.0932 159.419 97.1905 159.227 97.191Z" fill="#8518F1"/>
<text fill="#4B4B4C" xml:space="preserve" style="white-space: pre" font-family="Poppins" font-size="16.5093" font-weight="300" letter-spacing="0.117923px"><tspan x="26.9999" y="139.861">Compared to previous year</tspan></text>
</svg>
