<svg width="330" height="167" viewBox="0 0 330 167" fill="none" xmlns="http://www.w3.org/2000/svg">
<rect x="0.919696" y="1.19045" width="252.821" height="164.821" rx="11.2027" fill="white" stroke="#EAFBEA" stroke-width="1.17923"/>
<text fill="#4B4B4C" xml:space="preserve" style="white-space: pre" font-family="Segoe UI" font-size="18.8678" letter-spacing="0.117923px"><tspan x="111.372" y="35.8779">ncounters</tspan></text>
<text fill="#4B4B4C" xml:space="preserve" style="white-space: pre" font-family="Segoe UI" font-size="18.8678" letter-spacing="0.117923px"><tspan x="26.7948" y="35.8779">Number </tspan></text>
<text fill="#4B4B4C" xml:space="preserve" style="white-space: pre" font-family="Segoe UI" font-size="18.8678" letter-spacing="0.117923px"><tspan x="21.4993" y="35.8779"> </tspan><tspan x="101.378" y="35.8779">e</tspan></text>
<text fill="#4B4B4C" xml:space="preserve" style="white-space: pre" font-family="Segoe UI Emoji" font-size="39.4253" letter-spacing="0px"><tspan x="21.4993" y="93.945">1070</tspan></text>
<rect x="124.499" y="59.6008" width="91" height="40" rx="12.0273" fill="#0AC60A" fill-opacity="0.16"/>
<text fill="#0AC60A" xml:space="preserve" style="white-space: pre" font-family="Segoe UI" font-size="20" letter-spacing="0.108905px"><tspan x="132.359" y="87.8821">-1.5%</tspan></text>
<path d="M203.742 79.1315C203.651 79.2014 203.542 79.2569 203.422 79.2947C203.303 79.3326 203.174 79.3521 203.045 79.3521C202.915 79.3521 202.787 79.3326 202.667 79.2947C202.548 79.2569 202.439 79.2014 202.348 79.1315L198.124 75.9134V85.1009C198.124 85.2998 198.02 85.4905 197.836 85.6312C197.651 85.7718 197.401 85.8509 197.139 85.8509C196.878 85.8509 196.628 85.7718 196.443 85.6312C196.259 85.4905 196.155 85.2998 196.155 85.1009V75.9134L191.93 79.1315C191.745 79.2724 191.494 79.3515 191.232 79.3515C190.971 79.3515 190.72 79.2724 190.535 79.1315C190.35 78.9906 190.246 78.7995 190.246 78.6002C190.246 78.401 190.35 78.2099 190.535 78.069L196.441 73.569C196.533 73.4991 196.642 73.4436 196.761 73.4057C196.881 73.3679 197.009 73.3484 197.139 73.3484C197.268 73.3484 197.397 73.3679 197.516 73.4057C197.636 73.4436 197.744 73.4991 197.836 73.569L203.742 78.069C203.834 78.1387 203.907 78.2215 203.956 78.3126C204.006 78.4038 204.032 78.5015 204.032 78.6002C204.032 78.6989 204.006 78.7967 203.956 78.8878C203.907 78.979 203.834 79.0618 203.742 79.1315Z" fill="#4ECB71"/>
<rect x="124.499" y="59.6008" width="91" height="40" rx="12.0273" fill="#C60A37" fill-opacity="0.16"/>
<text fill="#C60A2C" xml:space="preserve" style="white-space: pre" font-family="Segoe UI" font-size="20" letter-spacing="0.108905px"><tspan x="131.359" y="87.8821">-1.5%</tspan></text>
<path fill-rule="evenodd" clip-rule="evenodd" d="M196.181 83.1656V74.2675C196.181 73.8993 196.61 73.6008 197.14 73.6008C197.669 73.6008 198.098 73.8993 198.098 74.2675V83.1542L203.127 79.1615C203.476 78.8846 204.081 78.8568 204.479 79.0994C204.878 79.3421 204.917 79.7633 204.569 80.0402L197.933 85.3087C197.76 85.485 197.469 85.6008 197.14 85.6008C197.139 85.6008 197.138 85.6008 197.137 85.6008C196.869 85.6021 196.601 85.5261 196.408 85.3728L189.71 80.0395C189.361 79.7622 189.402 79.3411 189.801 79.0988C190.199 78.8566 190.805 78.8849 191.153 79.1622L196.181 83.1656Z" fill="#C60A2C"/>
<text fill="#4B4B4C" xml:space="preserve" style="white-space: pre" font-family="Segoe UI" font-size="16.5093" font-weight="300" letter-spacing="0.117923px"><tspan x="21.4993" y="136.161">Compared to previous year</tspan></text>
</svg>
